<svg width="177" height="41" viewBox="0 0 177 41" fill="none" xmlns="http://www.w3.org/2000/svg">
<path d="M103.068 17.8551H106.908L110.688 27.7751L114.508 17.8551H118.308V32.0151H115.908V20.2551H115.868L111.568 32.0151H109.808L105.508 20.2551H105.468V32.0151H103.068V17.8551Z" fill="white"/>
<path d="M134.863 26.8151C134.863 27.6685 134.717 28.4418 134.423 29.1351C134.13 29.8151 133.73 30.3951 133.223 30.8751C132.717 31.3551 132.117 31.7285 131.423 31.9951C130.73 32.2485 129.977 32.3751 129.163 32.3751C128.35 32.3751 127.597 32.2485 126.903 31.9951C126.21 31.7285 125.603 31.3551 125.083 30.8751C124.577 30.3951 124.177 29.8151 123.883 29.1351C123.603 28.4418 123.463 27.6685 123.463 26.8151V17.8551H125.983V26.7351C125.983 27.0818 126.037 27.4485 126.143 27.8351C126.25 28.2085 126.423 28.5551 126.663 28.8751C126.917 29.1951 127.243 29.4618 127.643 29.6751C128.057 29.8751 128.563 29.9751 129.163 29.9751C129.763 29.9751 130.263 29.8751 130.663 29.6751C131.077 29.4618 131.403 29.1951 131.643 28.8751C131.897 28.5551 132.077 28.2085 132.183 27.8351C132.29 27.4485 132.343 27.0818 132.343 26.7351V17.8551H134.863V26.8151Z" fill="white"/>
<path d="M146.897 20.8951C146.63 20.5084 146.27 20.2284 145.817 20.0551C145.377 19.8684 144.91 19.7751 144.417 19.7751C144.124 19.7751 143.837 19.8084 143.557 19.8751C143.29 19.9418 143.044 20.0484 142.817 20.1951C142.604 20.3418 142.43 20.5351 142.297 20.7751C142.164 21.0018 142.097 21.2751 142.097 21.5951C142.097 22.0751 142.264 22.4418 142.597 22.6951C142.93 22.9485 143.344 23.1685 143.837 23.3551C144.33 23.5418 144.87 23.7218 145.457 23.8951C146.044 24.0685 146.584 24.3085 147.077 24.6151C147.57 24.9218 147.984 25.3285 148.317 25.8351C148.65 26.3418 148.817 27.0151 148.817 27.8551C148.817 28.6151 148.677 29.2818 148.397 29.8551C148.117 30.4151 147.737 30.8818 147.257 31.2551C146.79 31.6285 146.244 31.9085 145.617 32.0951C144.99 32.2818 144.33 32.3751 143.637 32.3751C142.757 32.3751 141.91 32.2285 141.097 31.9351C140.284 31.6418 139.584 31.1485 138.997 30.4551L140.897 28.6151C141.204 29.0818 141.604 29.4485 142.097 29.7151C142.604 29.9685 143.137 30.0951 143.697 30.0951C143.99 30.0951 144.284 30.0551 144.577 29.9751C144.87 29.8951 145.137 29.7751 145.377 29.6151C145.617 29.4551 145.81 29.2551 145.957 29.0151C146.104 28.7618 146.177 28.4751 146.177 28.1551C146.177 27.6351 146.01 27.2351 145.677 26.9551C145.344 26.6751 144.93 26.4418 144.437 26.2551C143.944 26.0551 143.404 25.8685 142.817 25.6951C142.23 25.5218 141.69 25.2885 141.197 24.9951C140.704 24.6885 140.29 24.2885 139.957 23.7951C139.624 23.2885 139.457 22.6151 139.457 21.7751C139.457 21.0418 139.604 20.4084 139.897 19.8751C140.204 19.3418 140.597 18.9018 141.077 18.5551C141.57 18.1951 142.13 17.9284 142.757 17.7551C143.384 17.5818 144.024 17.4951 144.677 17.4951C145.424 17.4951 146.144 17.6085 146.837 17.8351C147.544 18.0618 148.177 18.4351 148.737 18.9551L146.897 20.8951Z" fill="white"/>
<path d="M153.441 17.8551H162.821V20.1351H155.961V23.6151H162.461V25.8951H155.961V29.7351H163.181V32.0151H153.441V17.8551Z" fill="white"/>
<path d="M174.608 20.8951C174.341 20.5084 173.981 20.2284 173.528 20.0551C173.088 19.8684 172.621 19.7751 172.128 19.7751C171.835 19.7751 171.548 19.8084 171.268 19.8751C171.001 19.9418 170.755 20.0484 170.528 20.1951C170.315 20.3418 170.141 20.5351 170.008 20.7751C169.875 21.0018 169.808 21.2751 169.808 21.5951C169.808 22.0751 169.975 22.4418 170.308 22.6951C170.641 22.9485 171.055 23.1685 171.548 23.3551C172.041 23.5418 172.581 23.7218 173.168 23.8951C173.755 24.0685 174.295 24.3085 174.788 24.6151C175.281 24.9218 175.695 25.3285 176.028 25.8351C176.361 26.3418 176.528 27.0151 176.528 27.8551C176.528 28.6151 176.388 29.2818 176.108 29.8551C175.828 30.4151 175.448 30.8818 174.968 31.2551C174.501 31.6285 173.955 31.9085 173.328 32.0951C172.701 32.2818 172.041 32.3751 171.348 32.3751C170.468 32.3751 169.621 32.2285 168.808 31.9351C167.995 31.6418 167.295 31.1485 166.708 30.4551L168.608 28.6151C168.915 29.0818 169.315 29.4485 169.808 29.7151C170.315 29.9685 170.848 30.0951 171.408 30.0951C171.701 30.0951 171.995 30.0551 172.288 29.9751C172.581 29.8951 172.848 29.7751 173.088 29.6151C173.328 29.4551 173.521 29.2551 173.668 29.0151C173.815 28.7618 173.888 28.4751 173.888 28.1551C173.888 27.6351 173.721 27.2351 173.388 26.9551C173.055 26.6751 172.641 26.4418 172.148 26.2551C171.655 26.0551 171.115 25.8685 170.528 25.6951C169.941 25.5218 169.401 25.2885 168.908 24.9951C168.415 24.6885 168.001 24.2885 167.668 23.7951C167.335 23.2885 167.168 22.6151 167.168 21.7751C167.168 21.0418 167.315 20.4084 167.608 19.8751C167.915 19.3418 168.308 18.9018 168.788 18.5551C169.281 18.1951 169.841 17.9284 170.468 17.7551C171.095 17.5818 171.735 17.4951 172.388 17.4951C173.135 17.4951 173.855 17.6085 174.548 17.8351C175.255 18.0618 175.888 18.4351 176.448 18.9551L174.608 20.8951Z" fill="white"/>
<path d="M4.63612 38.7714C9.06876 41.3308 14.7361 39.8132 17.2944 35.3811C19.8527 30.9494 18.3332 25.2816 13.9006 22.722C9.46797 20.1624 3.80072 21.6802 1.24238 26.112C-1.3159 30.5439 0.203482 36.2114 4.63612 38.7714Z" fill="white"/>
<path fill-rule="evenodd" clip-rule="evenodd" d="M48.8834 20.7291C48.7085 21.0311 48.5188 21.3193 48.3157 21.5933L40.2365 35.8388L40.1789 35.8063C37.4859 39.5575 32.3225 40.7279 28.2303 38.373C24.1866 36.0454 22.6109 31.0939 24.4193 26.9241L24.4087 26.9181L24.4687 26.8123C24.5956 26.5302 24.7381 26.2519 24.8965 25.9784C25.0267 25.7536 25.165 25.5365 25.311 25.3272L32.9985 11.7733L33.0353 11.794C33.0614 11.7472 33.0879 11.7004 33.1149 11.6538C35.6284 7.31461 41.1955 5.82861 45.5497 8.33467C49.904 10.8407 51.3966 16.3899 48.8834 20.7291Z" fill="white"/>
<path fill-rule="evenodd" clip-rule="evenodd" d="M80.5533 13.4367C82.9268 9.12451 81.4163 3.69014 77.1206 1.21773C72.7663 -1.28834 67.1992 0.197665 64.686 4.53683C64.647 4.60418 64.609 4.67181 64.5719 4.73973L52.2272 26.0516L52.2271 26.0518C52.1993 26.0984 52.1715 26.145 52.1437 26.1928C52.1387 26.2013 52.1338 26.2098 52.1288 26.2183C52.106 26.2573 52.0835 26.2958 52.0628 26.3352C52.0589 26.3409 52.0558 26.3468 52.0527 26.3528C52.0496 26.3588 52.0466 26.3648 52.0427 26.3705C49.6726 30.6825 51.1827 36.1162 55.478 38.5872C59.7727 41.0595 65.2491 39.6491 67.8115 35.4453L67.9132 35.2679L80.5582 13.4395L80.5533 13.4367Z" fill="white"/>
</svg>
