<svg width="171" height="120" viewBox="0 0 171 120" fill="none" xmlns="http://www.w3.org/2000/svg">
<path d="M9.56707 81.7504C18.7142 87.0305 30.4093 83.8997 35.6885 74.7561C40.9679 65.6132 37.8324 53.9204 28.6852 48.6398C19.5381 43.3592 7.84315 46.4904 2.56376 55.6335C-2.71549 64.7767 0.419904 76.469 9.56707 81.7504Z" fill="white"/>
<path fill-rule="evenodd" clip-rule="evenodd" d="M102.114 43.552C101.745 44.191 101.345 44.8005 100.916 45.3799L83.9484 75.3899L83.8284 75.3221C78.1714 83.2262 67.3249 85.6925 58.7286 80.7303C50.2341 75.8258 46.924 65.3924 50.7229 56.606L50.6994 56.5928L50.8322 56.3579C51.0973 55.7678 51.3948 55.1855 51.7253 54.6132C51.9964 54.1436 52.2845 53.6899 52.5882 53.2524L68.7437 24.6808L68.822 24.725C68.8769 24.6261 68.9327 24.5274 68.9895 24.4291C74.2694 15.2859 85.964 12.1547 95.1108 17.4353C104.258 22.7159 107.393 34.4087 102.114 43.552Z" fill="white"/>
<path fill-rule="evenodd" clip-rule="evenodd" d="M168.644 28.3136C173.63 19.2271 170.457 7.77573 161.433 2.56592C152.286 -2.71469 140.592 0.416506 135.312 9.55969C135.236 9.69237 135.161 9.82559 135.088 9.95931L109.14 54.8945L109.139 54.8947C109.081 54.9929 109.023 55.0911 108.964 55.1919C108.954 55.2099 108.943 55.2277 108.933 55.2456C108.885 55.3279 108.838 55.409 108.794 55.4919C108.786 55.5039 108.779 55.5165 108.773 55.5291C108.767 55.5417 108.76 55.5543 108.752 55.5663C103.773 64.6523 106.945 76.1019 115.968 81.3085C124.99 86.5179 136.494 83.5462 141.877 74.6881L142.091 74.3143L168.653 28.319L168.644 28.3136Z" fill="white"/>
<path d="M0.926697 107.883H4.06087L7.14606 115.974L10.2639 107.883H13.3654V119.433H11.4066V109.84H11.3739L7.86431 119.433H6.42782L2.9182 109.84H2.88556V119.433H0.926697V107.883ZM45.6503 115.191C45.6503 115.887 45.5306 116.518 45.2912 117.084C45.0518 117.638 44.7253 118.111 44.3118 118.503C43.8983 118.894 43.4086 119.199 42.8427 119.416C42.2768 119.623 41.6619 119.726 40.9981 119.726C40.3342 119.726 39.7194 119.623 39.1535 119.416C38.5876 119.199 38.0924 118.894 37.668 118.503C37.2545 118.111 36.928 117.638 36.6886 117.084C36.4601 116.518 36.3458 115.887 36.3458 115.191V107.883H38.4026V115.126C38.4026 115.409 38.4461 115.708 38.5332 116.023C38.6202 116.328 38.7617 116.61 38.9576 116.871C39.1644 117.132 39.431 117.35 39.7575 117.524C40.0948 117.687 40.5084 117.769 40.9981 117.769C41.4878 117.769 41.8959 117.687 42.2224 117.524C42.5597 117.35 42.8263 117.132 43.0222 116.871C43.229 116.61 43.3759 116.328 43.463 116.023C43.55 115.708 43.5935 115.409 43.5935 115.126V107.883H45.6503V115.191ZM74.2449 110.362C74.0272 110.047 73.7334 109.819 73.3634 109.677C73.0043 109.525 72.6234 109.449 72.2207 109.449C71.9813 109.449 71.7473 109.476 71.5188 109.531C71.3011 109.585 71.0998 109.672 70.9148 109.792C70.7407 109.911 70.5992 110.069 70.4904 110.265C70.3816 110.449 70.3272 110.672 70.3272 110.933C70.3272 111.325 70.4632 111.624 70.7353 111.831C71.0073 112.037 71.3447 112.217 71.7473 112.369C72.15 112.521 72.5907 112.668 73.0696 112.809C73.5484 112.951 73.9891 113.147 74.3918 113.397C74.7944 113.647 75.1318 113.979 75.4039 114.392C75.6759 114.805 75.812 115.354 75.812 116.04C75.812 116.659 75.6977 117.203 75.4692 117.671C75.2406 118.128 74.9305 118.508 74.5387 118.813C74.1578 119.117 73.7116 119.346 73.2001 119.498C72.6887 119.65 72.15 119.726 71.5841 119.726C70.8658 119.726 70.1748 119.607 69.511 119.367C68.8466 119.128 68.2753 118.726 67.7964 118.16L69.3477 116.659C69.598 117.04 69.9245 117.339 70.3272 117.557C70.7407 117.763 71.176 117.867 71.6331 117.867C71.8725 117.867 72.1119 117.834 72.3513 117.769C72.5907 117.703 72.8084 117.606 73.0043 117.475C73.2001 117.345 73.3579 117.181 73.4777 116.986C73.5974 116.779 73.6572 116.545 73.6572 116.284C73.6572 115.86 73.5212 115.534 73.2491 115.305C72.9771 115.077 72.6397 114.887 72.237 114.734C71.8344 114.571 71.3936 114.419 70.9148 114.278C70.436 114.136 69.9952 113.946 69.5926 113.707C69.1899 113.457 68.852 113.13 68.58 112.728C68.3079 112.315 68.1719 111.765 68.1719 111.08C68.1719 110.482 68.2916 109.966 68.531 109.531C68.7813 109.095 69.1029 108.737 69.4947 108.454C69.8973 108.16 70.3544 107.943 70.8658 107.801C71.3773 107.66 71.8997 107.589 72.4329 107.589C73.0424 107.589 73.63 107.682 74.1959 107.867C74.7727 108.051 75.2896 108.356 75.7467 108.78L74.2449 110.362ZM98.3578 107.883H106.014V109.743H100.415V112.581H105.72V114.441H100.415V117.573H106.308V119.433H98.3578V107.883ZM134.406 110.362C134.189 110.047 133.895 109.819 133.525 109.677C133.166 109.525 132.785 109.449 132.382 109.449C132.143 109.449 131.909 109.476 131.68 109.531C131.462 109.585 131.261 109.672 131.076 109.792C130.902 109.911 130.761 110.069 130.652 110.265C130.543 110.449 130.488 110.672 130.488 110.933C130.488 111.325 130.625 111.624 130.897 111.831C131.169 112.037 131.506 112.217 131.909 112.369C132.311 112.521 132.752 112.668 133.231 112.809C133.71 112.951 134.15 113.147 134.553 113.397C134.956 113.647 135.293 113.979 135.565 114.392C135.837 114.805 135.973 115.354 135.973 116.04C135.973 116.659 135.859 117.203 135.63 117.671C135.402 118.128 135.092 118.508 134.7 118.813C134.319 119.117 133.873 119.346 133.361 119.498C132.85 119.65 132.311 119.726 131.745 119.726C131.027 119.726 130.336 119.607 129.672 119.367C129.008 119.128 128.437 118.726 127.958 118.16L129.509 116.659C129.759 117.04 130.086 117.339 130.488 117.557C130.902 117.763 131.337 117.867 131.794 117.867C132.034 117.867 132.273 117.834 132.513 117.769C132.752 117.703 132.97 117.606 133.166 117.475C133.361 117.345 133.519 117.181 133.639 116.986C133.759 116.779 133.819 116.545 133.819 116.284C133.819 115.86 133.682 115.534 133.41 115.305C133.138 115.077 132.801 114.887 132.398 114.734C131.996 114.571 131.555 114.419 131.076 114.278C130.597 114.136 130.157 113.946 129.754 113.707C129.351 113.457 129.014 113.13 128.742 112.728C128.47 112.315 128.334 111.765 128.334 111.08C128.334 110.482 128.453 109.966 128.693 109.531C128.943 109.095 129.264 108.737 129.656 108.454C130.059 108.16 130.516 107.943 131.027 107.801C131.539 107.66 132.061 107.589 132.594 107.589C133.204 107.589 133.791 107.682 134.357 107.867C134.934 108.051 135.451 108.356 135.908 108.78L134.406 110.362Z" fill="white"/>
</svg>
