<svg width="30" height="30" viewBox="0 0 30 30" fill="none" xmlns="http://www.w3.org/2000/svg">
<path fill-rule="evenodd" clip-rule="evenodd" d="M15.2079 29.0623C7.19114 29.0623 0.692261 22.5729 0.692261 14.5679C0.692261 6.56294 7.19114 0.0736084 15.2079 0.0736084C23.2247 0.0736084 29.7236 6.56294 29.7236 14.5679C29.7236 22.5729 23.2247 29.0623 15.2079 29.0623ZM15.2079 27.0586C22.1165 27.0586 27.717 21.4664 27.717 14.5679C27.717 7.66952 22.1165 2.07724 15.2079 2.07724C8.29934 2.07724 2.69884 7.66952 2.69884 14.5679C2.69884 21.4664 8.29934 27.0586 15.2079 27.0586ZM11.484 17.3792C11.6439 17.3792 11.816 17.3546 11.9144 17.3178V18.4105C11.7054 18.4719 11.3857 18.521 11.1275 18.521C9.81185 18.521 9.23395 17.9685 9.23395 16.6057V13.2785H8.18883V12.2103H9.23395V10.6511H10.6357V12.2103H11.8529V13.2785H10.6357V16.397C10.6357 17.0968 10.8693 17.3792 11.484 17.3792ZM20.091 12.063C21.4189 12.063 22.2304 12.9224 22.2304 14.6044V18.4473H20.8287V14.7395C20.8287 13.6345 20.3984 13.1925 19.6975 13.1925C18.8737 13.1925 18.3819 13.8923 18.3819 15.0833V18.4473H16.9802V14.5922C16.9802 13.7082 16.5867 13.1925 15.8613 13.1925C15.0252 13.1925 14.5457 13.9046 14.5457 15.1078V18.4473H13.144V12.2103H14.4842V12.9592H14.5088C14.9514 12.3576 15.5047 12.063 16.2424 12.063C17.1031 12.063 17.7671 12.4559 18.0868 13.1925C18.5417 12.4804 19.1442 12.063 20.091 12.063Z" fill="white"/>
</svg>
