<svg viewBox="0 0 602 180" fill="none" xmlns="http://www.w3.org/2000/svg">
    <path d="M173.819 21.964C174.934 20.748 176.2 20.14 177.619 20.14C179.139 20.14 180.608 20.596 182.027 21.508C183.446 22.3187 184.763 23.484 185.979 25.004C187.296 26.4227 188.36 27.9933 189.171 29.716C189.982 31.3373 190.488 33.0093 190.691 34.732C190.995 36.4547 190.792 37.9747 190.083 39.292C186.638 45.2707 182.584 51.8067 177.923 58.9C173.363 65.9933 168.499 73.2893 163.331 80.788C158.264 88.2867 153.147 95.7347 147.979 103.132C142.811 110.529 137.947 117.471 133.387 123.956C129.638 129.327 126.091 134.343 122.747 139.004C119.504 143.665 116.667 147.769 114.235 151.316C111.803 154.863 109.878 157.751 108.459 159.98C107.04 162.311 106.28 163.679 106.179 164.084L106.331 164.236C115.856 158.257 125.432 151.468 135.059 143.868C144.686 136.167 154.16 127.959 163.483 119.244C172.907 110.428 182.027 101.207 190.843 91.58C199.76 81.852 208.171 71.972 216.075 61.94C223.979 51.8067 231.275 41.6227 237.963 31.388C244.752 21.052 250.68 10.868 255.747 0.836003C256.558 -0.278668 257.774 -0.278668 259.395 0.836003C261.016 1.84933 262.587 3.36933 264.107 5.396C265.728 7.32133 266.995 9.39867 267.907 11.628C268.92 13.756 269.174 15.3773 268.667 16.492C264.918 23.18 260.104 30.628 254.227 38.836C248.35 46.9427 241.712 55.404 234.315 64.22C227.019 72.9347 219.166 81.8013 210.755 90.82C202.446 99.8387 193.984 108.553 185.371 116.964C176.758 125.375 168.195 133.329 159.683 140.828C151.171 148.225 143.115 154.711 135.515 160.284C127.915 165.959 120.974 170.468 114.691 173.812C108.408 177.257 103.19 179.183 99.0349 179.588C97.0082 179.487 95.0829 178.879 93.2589 177.764C91.5362 176.751 90.0669 175.332 88.8509 173.508C87.6349 171.785 86.7229 169.809 86.1149 167.58C85.5069 165.452 85.4562 163.172 85.9629 160.74L89.0029 154.66C83.5309 159.828 78.2109 164.185 73.0429 167.732C67.9762 171.38 63.4669 173.711 59.5149 174.724L59.6669 174.572C56.7282 175.281 53.9922 175.636 51.4589 175.636C47.8109 175.636 44.7709 174.927 42.3389 173.508C40.0082 172.089 38.1842 170.164 36.8669 167.732C35.6509 165.401 34.8909 162.615 34.5869 159.372C34.2829 156.231 34.4349 152.887 35.0429 149.34C35.2456 147.82 35.4989 146.351 35.8029 144.932C36.2082 143.513 36.6642 142.095 37.1709 140.676C38.9949 136.015 41.3762 130.745 44.3149 124.868C47.3549 118.991 50.8002 112.809 54.6509 106.324C58.6029 99.7373 62.9096 92.948 67.5709 85.956C72.2322 78.8627 77.0962 71.7187 82.1629 64.524C87.3309 57.228 92.6002 50.0333 97.9709 42.94C103.342 35.8467 108.712 28.956 114.083 22.268C106.787 23.0787 99.3896 24.8013 91.8909 27.436C84.3922 30.0707 77.1469 33.3133 70.1549 37.164C63.1629 41.0147 56.5256 45.3213 50.2429 50.084C44.0616 54.8467 38.5896 59.66 33.8269 64.524C29.0642 69.388 25.1629 74.2013 22.1229 78.964C19.1842 83.6253 17.5122 87.8813 17.1069 91.732L16.0429 93.86C15.3336 94.6707 13.9656 94.8227 11.9389 94.316C9.91224 93.8093 7.88558 92.7453 5.85891 91.124C3.83224 89.5027 2.21091 87.476 0.994909 85.044C-0.221091 82.5107 -0.322424 79.6227 0.690909 76.38C4.03491 68.172 8.49358 60.6733 14.0669 53.884C19.6402 47.0947 25.7709 41.0147 32.4589 35.644C39.2482 30.172 46.3922 25.4093 53.8909 21.356C61.4909 17.2013 68.9389 13.8067 76.2349 11.172C83.6323 8.436 90.6749 6.40933 97.3629 5.09199C104.152 3.67333 110.131 2.96399 115.299 2.96399C116.616 2.96399 117.883 2.96399 119.099 2.96399C120.315 2.96399 121.43 3.06533 122.443 3.268C124.368 3.57199 126.192 4.38266 127.915 5.69999C129.739 7.01733 131.31 8.588 132.627 10.412C133.944 12.236 134.958 14.1613 135.667 16.188C136.376 18.1133 136.579 19.8867 136.275 21.508C135.971 22.6227 135.11 24.396 133.691 26.828C132.374 29.26 130.6 32.1987 128.371 35.644C126.142 38.988 123.608 42.7373 120.771 46.892C118.035 50.9453 115.147 55.1507 112.107 59.508C108.358 64.8787 104.406 70.5533 100.251 76.532C96.0962 82.5107 91.9922 88.54 87.9389 94.62C83.8856 100.7 79.9843 106.729 76.2349 112.708C72.5869 118.585 69.2429 124.159 66.2029 129.428C63.2642 134.697 60.7816 139.561 58.7549 144.02C56.8296 148.377 55.6136 152.076 55.1069 155.116C54.8029 157.041 55.0562 158.511 55.8669 159.524C56.7789 160.537 58.4002 160.791 60.7309 160.284C64.3789 159.271 68.5336 156.94 73.1949 153.292C77.9576 149.644 82.8722 145.236 87.9389 140.068C93.0056 134.799 98.1229 129.124 103.291 123.044C108.56 116.863 113.526 110.783 118.187 104.804C122.95 98.724 127.307 93.0493 131.259 87.78C135.211 82.4093 138.454 77.9507 140.987 74.404L141.595 73.796C146.459 66.804 151.222 59.7107 155.883 52.516C160.646 45.3213 165.358 37.8227 170.019 30.02C170.019 29.9187 170.171 29.6147 170.475 29.108C170.779 28.5 171.083 27.892 171.387 27.284C171.691 26.5747 171.995 25.9667 172.299 25.46C172.603 24.852 172.755 24.4467 172.755 24.244L173.819 21.964Z" fill="white"/>
    <path d="M262.529 93.708C256.449 102.828 249.254 110.428 240.945 116.508C232.737 122.588 223.921 127.097 214.497 130.036C214.193 132.772 214.345 135.356 214.953 137.788C215.662 140.22 217.182 141.689 219.513 142.196L219.209 142.044C221.134 142.551 223.465 142.399 226.201 141.588C229.038 140.777 232.078 139.359 235.321 137.332C238.665 135.204 242.161 132.468 245.809 129.124C249.457 125.78 253.105 121.828 256.753 117.268C258.678 114.836 260.502 112.353 262.225 109.82C264.049 107.185 265.771 104.703 267.393 102.372C268.507 101.055 269.723 100.345 271.041 100.244C272.459 100.143 273.625 100.497 274.537 101.308C275.55 102.017 276.158 103.081 276.361 104.5C276.665 105.817 276.209 107.337 274.993 109.06L271.193 114.532C267.95 119.092 263.998 124.159 259.337 129.732C254.777 135.204 249.558 140.524 243.681 145.692C240.235 148.529 236.891 150.759 233.649 152.38C230.406 153.9 227.417 155.015 224.681 155.724C221.945 156.535 219.462 156.991 217.233 157.092C215.105 157.295 213.433 157.396 212.217 157.396C204.313 157.396 198.587 155.116 195.041 150.556C191.595 145.996 190.379 139.764 191.393 131.86C192.305 124.969 194.483 118.231 197.929 111.644C201.475 105.057 206.441 97.9133 212.825 90.212C215.054 87.6787 217.841 84.9933 221.185 82.156C224.529 79.2173 228.177 76.532 232.129 74.1C236.081 71.668 240.185 69.692 244.441 68.172C248.798 66.652 252.953 65.9427 256.905 66.044C261.059 66.1453 264.201 67.564 266.329 70.3C268.457 72.9347 269.115 76.532 268.305 81.092C268.001 83.1187 267.342 85.196 266.329 87.324C265.417 89.3507 264.099 91.5293 262.377 93.86L262.529 93.708ZM254.625 81.244C250.977 81.9533 247.379 83.5747 243.833 86.108C240.286 88.6413 236.942 91.6307 233.801 95.076C230.659 98.5213 227.771 102.22 225.137 106.172C222.502 110.023 220.323 113.671 218.601 117.116C225.795 114.177 232.483 110.225 238.665 105.26C244.846 100.193 250.115 94.164 254.473 87.172V87.324C255.081 86.5133 255.486 85.7027 255.689 84.892C255.993 84.0813 256.246 83.372 256.449 82.764C256.651 81.3453 256.043 80.8387 254.625 81.244Z" fill="white"/>
    <path d="M368.122 114.532C364.88 119.092 360.928 124.159 356.266 129.732C351.706 135.204 346.488 140.524 340.61 145.692C337.165 148.529 333.821 150.759 330.578 152.38C327.336 153.9 324.346 155.015 321.61 155.724C318.874 156.535 316.392 156.991 314.162 157.092C312.034 157.295 310.362 157.396 309.146 157.396C301.242 157.396 295.517 155.116 291.97 150.556C288.525 145.996 287.309 139.764 288.322 131.86C289.234 124.969 291.413 118.231 294.858 111.644C298.405 105.057 303.37 97.9133 309.754 90.212C311.984 87.6787 314.77 84.9933 318.114 82.156C321.458 79.2173 325.106 76.532 329.058 74.1C333.01 71.668 337.114 69.692 341.37 68.172C345.728 66.652 349.882 65.9427 353.834 66.044C357.989 66.1453 361.08 67.564 363.106 70.3C365.234 72.9347 365.893 76.4307 365.082 80.788C364.474 84.8413 362.65 88.8947 359.61 92.948C358.394 94.2653 357.128 95.076 355.81 95.38C354.594 95.5827 353.53 95.38 352.618 94.772C351.808 94.164 351.2 93.2013 350.794 91.884C350.49 90.5667 350.642 89.0467 351.25 87.324C352.466 85.7027 353.176 84.0813 353.378 82.46C353.48 81.9533 353.378 81.5987 353.074 81.396C352.872 81.092 352.365 81.0413 351.554 81.244C347.501 82.0547 343.448 84.0307 339.394 87.172C335.442 90.3133 331.744 93.9107 328.298 97.964C324.853 102.017 321.813 106.273 319.178 110.732C316.544 115.089 314.568 118.94 313.25 122.284L311.578 128.364C311.376 129.884 311.274 131.404 311.274 132.924C311.274 134.343 311.426 135.711 311.73 137.028C312.136 138.244 312.693 139.359 313.402 140.372C314.213 141.284 315.226 141.892 316.442 142.196L316.138 142.044C318.064 142.551 320.394 142.399 323.13 141.588C325.968 140.777 329.008 139.359 332.25 137.332C335.594 135.204 339.09 132.468 342.738 129.124C346.386 125.78 350.034 121.828 353.682 117.268C355.608 114.836 357.432 112.353 359.154 109.82C360.978 107.185 362.701 104.703 364.322 102.372C365.437 101.055 366.704 100.345 368.122 100.244C369.541 100.143 370.757 100.447 371.77 101.156C372.784 101.865 373.392 102.929 373.594 104.348C373.797 105.665 373.24 107.236 371.922 109.06L368.122 114.532Z" fill="white"/>
    <path d="M415.863 65.588C419.917 66.3987 422.855 68.3747 424.679 71.516C426.605 74.6573 427.669 78.204 427.871 82.156C428.885 83.5747 429.594 85.2973 429.999 87.324C430.405 89.3507 430.607 91.6307 430.607 94.164C430.405 94.9747 430.253 95.7853 430.151 96.596C430.151 97.4067 430.05 98.3693 429.847 99.484C429.138 103.841 427.821 108.3 425.895 112.86C424.071 117.319 421.842 121.676 419.207 125.932C416.573 130.087 413.583 134.089 410.239 137.94C406.895 141.689 403.399 144.983 399.751 147.82C396.103 150.556 392.354 152.735 388.503 154.356C384.754 155.977 381.106 156.788 377.559 156.788C370.973 156.687 365.551 154.508 361.295 150.252C357.039 145.996 354.81 139.409 354.607 130.492C354.607 129.377 354.658 128.212 354.759 126.996C354.861 125.679 355.013 124.311 355.215 122.892C355.925 118.535 357.343 114.076 359.471 109.516C361.599 104.855 364.183 100.345 367.223 95.988C370.263 91.6307 373.709 87.5267 377.559 83.676C381.511 79.8253 385.615 76.532 389.871 73.796C394.127 70.9587 398.434 68.8307 402.791 67.412C407.25 65.892 411.607 65.284 415.863 65.588ZM405.223 105.716C404.413 105.412 403.855 104.703 403.551 103.588C403.349 102.473 403.247 101.257 403.247 99.94C403.247 98.5213 403.349 97.052 403.551 95.532C403.855 94.012 404.109 92.6947 404.311 91.58C404.615 90.2627 405.223 88.996 406.135 87.78C407.149 86.4627 408.213 85.348 409.327 84.436C410.442 83.4227 411.506 82.5613 412.519 81.852C413.634 81.1427 414.495 80.636 415.103 80.332C414.799 80.1293 414.09 80.028 412.975 80.028C410.746 80.2307 408.162 81.1427 405.223 82.764C402.285 84.284 399.498 86.2093 396.863 88.54C394.127 91.0733 391.594 93.9107 389.263 97.052C386.933 100.092 384.805 103.284 382.879 106.628C381.055 109.972 379.485 113.316 378.167 116.66C376.951 119.903 376.141 122.943 375.735 125.78C375.026 129.631 375.178 132.873 376.191 135.508C377.205 138.041 379.383 139.409 382.727 139.612C385.159 139.713 387.693 139.105 390.327 137.788C392.962 136.369 395.546 134.495 398.079 132.164C400.613 129.833 403.045 127.148 405.375 124.108C407.807 120.967 409.986 117.724 411.911 114.38C413.837 110.935 415.458 107.54 416.775 104.196C418.093 100.852 418.954 97.7613 419.359 94.924L419.663 94.164C418.853 94.164 417.89 94.5187 416.775 95.228C415.762 95.836 414.749 96.596 413.735 97.508C412.823 98.42 411.962 99.3827 411.151 100.396C410.442 101.409 409.935 102.321 409.631 103.132L405.223 105.716Z" fill="white"/>
    <path d="M493.946 121.676C492.224 124.615 490.754 127.553 489.538 130.492C488.424 133.431 487.664 135.964 487.258 138.092C487.056 139.004 486.802 139.561 486.498 139.764H488.018C491.058 138.751 493.997 137.079 496.834 134.748C499.672 132.417 502.408 129.783 505.042 126.844C507.778 123.804 510.362 120.612 512.794 117.268C515.328 113.823 517.709 110.529 519.938 107.388C520.749 106.577 521.357 105.868 521.762 105.26C522.168 104.652 522.573 103.993 522.978 103.284C523.384 102.777 524.144 102.676 525.258 102.98C526.373 103.183 527.437 103.639 528.45 104.348C529.464 105.057 530.274 105.919 530.882 106.932C531.49 107.844 531.49 108.655 530.882 109.364L526.474 115.444V115.596C522.117 121.575 517.557 127.503 512.794 133.38C508.133 139.156 502.914 144.375 497.138 149.036C496.226 149.847 495.061 150.759 493.642 151.772C492.325 152.684 490.805 153.545 489.082 154.356C487.461 155.268 485.688 155.977 483.762 156.484C481.837 157.092 479.861 157.345 477.834 157.244C472.97 156.839 469.525 155.116 467.498 152.076C465.573 149.036 464.864 145.236 465.37 140.676C460.81 144.932 456.2 148.631 451.538 151.772C446.877 154.812 442.418 156.383 438.162 156.484C434.312 156.079 431.221 155.015 428.89 153.292C426.661 151.468 424.989 149.34 423.874 146.908C422.76 144.476 422.101 141.892 421.898 139.156C421.797 136.319 421.898 133.684 422.202 131.252C422.608 129.023 423.064 127.199 423.57 125.78C424.584 122.031 426.256 117.927 428.586 113.468C430.917 109.009 433.704 104.551 436.946 100.092C440.189 95.6333 443.736 91.3267 447.586 87.172C451.538 83.0173 455.693 79.3187 460.05 76.076C464.408 72.8333 468.816 70.2493 473.274 68.324C477.834 66.3987 482.344 65.436 486.802 65.436C488.12 65.436 489.386 65.5373 490.602 65.74C491.818 65.9427 493.136 66.2467 494.554 66.652C497.29 67.6653 499.368 69.3373 500.786 71.668L502.154 69.692L507.93 60.876C510.464 57.1267 512.896 53.2253 515.226 49.172C517.658 45.1187 519.888 41.1667 521.914 37.316C524.042 33.364 525.917 29.6147 527.538 26.068C529.261 22.42 530.73 19.1267 531.946 16.188C533.466 15.3773 535.341 15.428 537.57 16.34C539.8 17.1507 541.826 18.468 543.65 20.292C545.474 22.0147 546.842 24.092 547.754 26.524C548.666 28.956 548.565 31.2867 547.45 33.516C546.842 34.732 545.728 36.7587 544.106 39.596C542.485 42.4333 540.56 45.6253 538.33 49.172C536.202 52.7187 533.872 56.468 531.338 60.42C528.906 64.2707 526.576 67.9187 524.346 71.364L519.026 79.724L519.178 79.572C514.922 85.956 510.666 92.5933 506.41 99.484C502.154 106.375 498.101 113.772 494.25 121.676H493.946ZM450.626 137.484C452.045 137.079 453.92 135.964 456.25 134.14C458.581 132.215 461.013 129.985 463.546 127.452C466.08 124.817 468.562 122.081 470.994 119.244C473.528 116.305 475.706 113.671 477.53 111.34L480.114 106.172C483.661 99.3827 487.562 92.644 491.818 85.956C491.616 84.436 491.16 83.1187 490.45 82.004C489.842 80.8893 488.677 80.2307 486.954 80.028C483.205 79.9267 479.354 81.2947 475.402 84.132C471.45 86.868 467.65 90.364 464.002 94.62C460.354 98.876 457.01 103.436 453.97 108.3C451.032 113.164 448.701 117.572 446.978 121.524C446.472 122.639 445.965 124.057 445.458 125.78C444.952 127.401 444.597 129.023 444.394 130.644C444.192 131.759 444.09 132.823 444.09 133.836C444.09 134.849 444.293 135.711 444.698 136.42C445.205 137.129 445.914 137.585 446.826 137.788C447.738 137.991 449.005 137.889 450.626 137.484Z" fill="white"/>
    <path d="M581.076 93.708C574.996 102.828 567.801 110.428 559.492 116.508C551.284 122.588 542.468 127.097 533.044 130.036C532.74 132.772 532.892 135.356 533.5 137.788C534.209 140.22 535.729 141.689 538.06 142.196L537.756 142.044C539.681 142.551 542.012 142.399 544.748 141.588C547.585 140.777 550.625 139.359 553.868 137.332C557.212 135.204 560.708 132.468 564.356 129.124C568.004 125.78 571.652 121.828 575.3 117.268C577.225 114.836 579.049 112.353 580.772 109.82C582.596 107.185 584.318 104.703 585.94 102.372C587.054 101.055 588.27 100.345 589.588 100.244C591.006 100.143 592.172 100.497 593.084 101.308C594.097 102.017 594.705 103.081 594.908 104.5C595.212 105.817 594.756 107.337 593.54 109.06L589.74 114.532C586.497 119.092 582.545 124.159 577.884 129.732C573.324 135.204 568.105 140.524 562.228 145.692C558.782 148.529 555.438 150.759 552.196 152.38C548.953 153.9 545.964 155.015 543.228 155.724C540.492 156.535 538.009 156.991 535.78 157.092C533.652 157.295 531.98 157.396 530.764 157.396C522.86 157.396 517.134 155.116 513.588 150.556C510.142 145.996 508.926 139.764 509.94 131.86C510.852 124.969 513.03 118.231 516.476 111.644C520.022 105.057 524.988 97.9133 531.372 90.212C533.601 87.6787 536.388 84.9933 539.732 82.156C543.076 79.2173 546.724 76.532 550.676 74.1C554.628 71.668 558.732 69.692 562.988 68.172C567.345 66.652 571.5 65.9427 575.452 66.044C579.606 66.1453 582.748 67.564 584.876 70.3C587.004 72.9347 587.662 76.532 586.852 81.092C586.548 83.1187 585.889 85.196 584.876 87.324C583.964 89.3507 582.646 91.5293 580.924 93.86L581.076 93.708ZM573.172 81.244C569.524 81.9533 565.926 83.5747 562.38 86.108C558.833 88.6413 555.489 91.6307 552.348 95.076C549.206 98.5213 546.318 102.22 543.684 106.172C541.049 110.023 538.87 113.671 537.148 117.116C544.342 114.177 551.03 110.225 557.212 105.26C563.393 100.193 568.662 94.164 573.02 87.172V87.324C573.628 86.5133 574.033 85.7027 574.236 84.892C574.54 84.0813 574.793 83.372 574.996 82.764C575.198 81.3453 574.59 80.8387 573.172 81.244Z" fill="white"/>
    <path d="M582.609 145.388C582.609 141.639 583.521 139.004 585.345 137.484C587.169 135.964 589.347 135.204 591.881 135.204C594.515 135.204 596.745 135.964 598.569 137.484C600.494 139.004 601.457 141.639 601.457 145.388C601.457 149.036 600.494 151.671 598.569 153.292C596.745 154.913 594.515 155.724 591.881 155.724C589.347 155.724 587.169 154.913 585.345 153.292C583.521 151.671 582.609 149.036 582.609 145.388Z" fill="white"/>
</svg>
